<mxfile host="app.diagrams.net" modified="2023-10-19T17:29:31.849Z" agent="Mozilla/5.0 (Windows NT 10.0; Win64; x64) AppleWebKit/537.36 (KHTML, like Gecko) Chrome/118.0.0.0 Safari/537.36" version="22.0.5" etag="w_MM6J7z6wa88KpJ-jA0" type="github">
  <diagram name="Page-1" id="Kqu5-JlFvrhmRQf7us6_">
    <mxGraphModel>
      <root>
        <mxCell id="0" />
        <mxCell id="1" parent="0" />
      </root>
    </mxGraphModel>
  </diagram>
</mxfile>
